<?xml version="1.0" standalone="no"?>
<!DOCTYPE svg PUBLIC "-//W3C//DTD SVG 20010904//EN"
 "http://www.w3.org/TR/2001/REC-SVG-20010904/DTD/svg10.dtd">
<svg version="1.0" xmlns="http://www.w3.org/2000/svg"
 width="512.000000pt" height="512.000000pt" viewBox="0 0 512.000000 512.000000"
 preserveAspectRatio="xMidYMid meet">

<g transform="translate(0.000000,512.000000) scale(0.100000,-0.100000)"
fill="#000000" stroke="none">
<path d="M587 4381 c3 -27 1 -63 -5 -80 l-11 -31 572 0 572 0 -135 -68 c-445
-221 -794 -573 -1011 -1017 -135 -279 -212 -580 -221 -870 l-3 -100 76 -3 76
-3 7 32 c3 17 6 61 6 96 0 146 49 385 119 581 169 473 525 881 973 1116 208
109 456 189 679 219 l94 13 3 82 3 82 -900 0 -900 0 6 -49z"/>
<path d="M2742 4348 l3 -82 97 -13 c658 -88 1243 -505 1547 -1103 132 -259
221 -588 221 -821 0 -120 0 -119 86 -119 40 0 75 3 77 8 2 4 0 67 -4 140 -24
385 -148 758 -359 1076 -91 136 -152 212 -273 335 -184 187 -370 323 -602 436
l-130 64 566 1 566 0 -13 50 c-8 32 -10 60 -4 80 l9 30 -895 0 -895 0 3 -82z"/>
<path d="M1855 1951 c-51 -23 -111 -89 -124 -138 -6 -21 -11 -85 -11 -144 0
-93 3 -111 26 -157 30 -60 91 -110 146 -119 l38 -6 0 -304 c0 -351 4 -377 65
-438 66 -67 75 -68 595 -60 l455 7 42 24 c25 15 53 42 68 68 l25 43 0 331 c0
327 0 332 20 332 69 0 163 78 185 154 18 60 20 199 3 264 -15 59 -85 132 -144
150 -31 9 -209 12 -695 12 -611 0 -657 -2 -694 -19z"/>
</g>
</svg>
