<?xml version="1.0" standalone="no"?>
<!DOCTYPE svg PUBLIC "-//W3C//DTD SVG 20010904//EN"
 "http://www.w3.org/TR/2001/REC-SVG-20010904/DTD/svg10.dtd">
<svg version="1.0" xmlns="http://www.w3.org/2000/svg"
 width="512.000000pt" height="512.000000pt" viewBox="0 0 512.000000 512.000000"
 preserveAspectRatio="xMidYMid meet">

<g transform="translate(0.000000,512.000000) scale(0.100000,-0.100000)"
fill="#000000" stroke="none">
<path d="M203 5102 c-248 -89 -273 -433 -38 -547 143 -71 312 -22 390 113 l30
51 510 1 510 0 -106 -53 c-375 -191 -697 -473 -920 -810 -173 -262 -281 -522
-340 -824 l-22 -113 -68 0 c-143 0 -149 -12 -149 -300 0 -240 5 -265 55 -288
36 -17 454 -17 490 0 50 23 55 48 55 288 0 240 -5 265 -55 288 -14 7 -48 12
-75 12 l-49 0 5 33 c119 665 553 1234 1178 1542 148 73 350 143 506 175 58 11
115 23 128 26 20 4 22 1 22 -45 0 -62 16 -98 51 -117 40 -20 458 -20 498 0 35
19 51 55 51 116 l0 50 33 -6 c230 -41 432 -106 622 -199 627 -308 1060 -875
1179 -1542 l6 -33 -50 0 c-27 0 -61 -5 -75 -12 -50 -23 -55 -48 -55 -288 0
-240 5 -265 55 -288 36 -17 454 -17 490 0 50 23 55 48 55 288 0 288 -6 300
-150 300 l-69 0 -6 38 c-118 731 -587 1361 -1275 1709 l-105 53 510 0 510 -1
30 -51 c93 -161 314 -194 458 -69 92 82 121 237 64 353 -104 211 -405 223
-522 20 l-30 -51 -837 -1 -838 0 0 60 c0 32 -5 71 -12 85 -23 50 -48 55 -288
55 -240 0 -265 -5 -288 -55 -7 -14 -12 -53 -12 -85 l0 -60 -838 0 -837 0 -24
45 c-65 123 -226 184 -358 137z m146 -196 c67 -35 65 -143 -4 -174 -51 -23
-107 -7 -131 39 -47 91 44 182 135 135z m2311 -86 l0 -100 -100 0 -100 0 0
100 0 100 100 0 100 0 0 -100z m2209 86 c67 -35 65 -143 -4 -174 -91 -41 -179
51 -131 137 26 47 84 63 135 37z m-4469 -2286 l0 -100 -100 0 -100 0 0 100 0
100 100 0 100 0 0 -100z m4520 0 l0 -100 -100 0 -100 0 0 100 0 100 100 0 100
0 0 -100z"/>
<path d="M2510 4106 c-18 -10 -158 -262 -533 -960 -280 -520 -511 -955 -514
-966 -10 -37 7 -69 72 -141 171 -191 284 -436 315 -689 5 -46 10 -163 10 -260
l1 -175 -103 -411 c-95 -381 -101 -413 -89 -443 27 -64 -12 -61 891 -61 903 0
864 -3 891 61 12 30 6 62 -90 446 l-104 414 6 227 c4 152 11 250 22 297 52
232 154 433 303 597 62 69 79 102 69 138 -3 11 -234 446 -514 966 -403 750
-514 949 -535 960 -34 17 -66 17 -98 0z m-50 -1078 l-1 -583 -51 -30 c-203
-117 -191 -418 20 -522 47 -23 70 -28 132 -28 62 0 85 5 132 28 211 104 223
405 20 522 l-51 30 -1 584 c0 321 2 582 5 579 3 -3 178 -326 389 -719 l384
-713 -43 -51 c-103 -121 -210 -314 -260 -469 -50 -155 -66 -259 -72 -463 l-6
-193 -498 0 -499 0 0 143 c-1 393 -111 718 -335 982 l-43 51 386 717 c212 394
387 717 389 717 1 0 3 -262 3 -582z m149 -782 c67 -35 65 -143 -4 -174 -51
-23 -107 -7 -131 39 -47 91 44 182 135 135z m498 -1541 c12 -49 23 -93 23 -97
0 -5 -88 -8 -195 -8 -150 0 -202 -3 -224 -14 -28 -15 -51 -53 -51 -87 0 -28
26 -75 47 -85 10 -5 121 -11 247 -14 l230 -5 23 -90 c12 -50 23 -93 23 -97 0
-5 -301 -8 -670 -8 -368 0 -670 2 -670 5 0 7 139 566 145 583 4 10 114 12 527
10 l522 -3 23 -90z"/>
<path d="M2311 586 c-87 -48 -50 -186 49 -186 51 0 100 49 100 99 0 75 -83
124 -149 87z"/>
</g>
</svg>
